<?xml version="1.0" encoding="utf-8"?>
<!-- Generator: Adobe Illustrator 26.3.1, SVG Export Plug-In . SVG Version: 6.00 Build 0)  -->
<svg version="1.1" id="Layer_1" xmlns="http://www.w3.org/2000/svg" xmlns:xlink="http://www.w3.org/1999/xlink" x="0px" y="0px"
	 viewBox="0 0 51 51" style="enable-background:new 0 0 51 51;" xml:space="preserve">
<style type="text/css">
	.st0{fill:#FFFFFF;}
	.st1{fill:#29B5B2;stroke:#29B5B2;stroke-miterlimit:10;}
</style>
<path class="st0" d="M41.1,49.3h-32c-4.4,0-7.9-3.5-7.9-7.9v-32c0-4.4,3.5-7.9,7.9-7.9h32C45.5,1.4,49,5,49,9.3v32
	C49,45.7,45.5,49.3,41.1,49.3z"/>
<g>
	<path class="st1" d="M27.4,8.3c-8.1,0-14.7,7.6-14.7,17v0.1l-2.9-5.1C9.6,19.8,9,19.7,8.5,20c-0.4,0.3-0.5,1-0.3,1.5l4.2,7.4
		c0.2,0.3,0.4,0.4,0.7,0.5c0,0,0.1,0,0.1,0c0.2,0,0.5-0.1,0.6-0.3l5.9-6.1c0.4-0.4,0.4-1.1,0.1-1.5c-0.3-0.4-0.9-0.5-1.3-0.1
		l-3.9,4.1v-0.1c0-8.2,5.7-14.8,12.8-14.8s12.8,6.7,12.8,14.8s-5.7,14.8-12.8,14.8c-3.4,0-6.6-1.5-9.1-4.3c-0.4-0.4-1-0.4-1.3,0
		c-0.4,0.4-0.4,1.1,0,1.5c2.8,3.2,6.5,5,10.4,5c8.1,0,14.7-7.6,14.7-17S35.6,8.3,27.4,8.3z"/>
</g>
</svg>
